# xmcd
#
# Track frame offsets: 
#        150
#        15245
#        31100
#        49755
#        61000
#        71647
#        83370
#        98747
#        112127
#        122810
#        136112
#        147487
#        158220
#        171910
#
# Disc length: 2476 seconds
#
# Revision: 0
# Processed by: cddbd v1.5PL3 Copyright (c) Steve Scherf et al.
# Submitted via: ExactAudioCopy v0.95a4
#
DISCID=b009aa0e
DTITLE=Kenny Rogers and The First Edition - The Hits and More [CD 3)
DYEAR=2001
DGENRE=Country
TTITLE0=Tell It All Brother
TTITLE1=I Found a Reason
TTITLE2=The King of Oak Street
TTITLE3=Hurry Love
TTITLE4=The Last Few Threads of Love
TTITLE5=I Just Want to Give My Love to You
TTITLE6=My Washington Woman
TTITLE7=A Stranger in My Place
TTITLE8=Homemade Lies
TTITLE9=It's Gonna Be Better
TTITLE10=Poem For My Little Lady
TTITLE11=She Even Woke Me Up to Say Goodbye
TTITLE12=I'm Gonna Sing You a Sad Song Suzy
TTITLE13=Molly
EXTD=
EXTT0=
EXTT1=
EXTT2=
EXTT3=
EXTT4=
EXTT5=
EXTT6=
EXTT7=
EXTT8=
EXTT9=
EXTT10=
EXTT11=
EXTT12=
EXTT13=
PLAYORDER=
